<?xml version="1.0" encoding="UTF-8" standalone="no"?>
<!-- Created with Inkscape (http://www.inkscape.org/) -->

<svg
   version="1.1"
   id="svg10"
   width="62"
   height="62"
   viewBox="0 0 62 62"
   sodipodi:docname="index.svg"
   inkscape:version="1.2.1 (9c6d41e410, 2022-07-14)"
   inkscape:export-filename="index.png"
   inkscape:export-xdpi="792.77002"
   inkscape:export-ydpi="792.77002"
   xmlns:inkscape="http://www.inkscape.org/namespaces/inkscape"
   xmlns:sodipodi="http://sodipodi.sourceforge.net/DTD/sodipodi-0.dtd"
   xmlns="http://www.w3.org/2000/svg"
   xmlns:svg="http://www.w3.org/2000/svg">
  <sodipodi:namedview
     id="namedview18"
     pagecolor="#ffffff"
     bordercolor="#000000"
     borderopacity="0.25"
     inkscape:showpageshadow="2"
     inkscape:pageopacity="0.0"
     inkscape:pagecheckerboard="0"
     inkscape:deskcolor="#d1d1d1"
     showgrid="false"
     inkscape:zoom="3.0888058"
     inkscape:cx="-72.196187"
     inkscape:cy="63.778694"
     inkscape:window-width="1920"
     inkscape:window-height="1009"
     inkscape:window-x="-8"
     inkscape:window-y="-8"
     inkscape:window-maximized="1"
     inkscape:current-layer="svg10" />
  <metadata
     id="metadata16" />
  <defs
     id="defs14" />
  <g
     id="g4650"
     transform="translate(-1.5670295,-0.38120848)">
    <path
       style="fill:#7e7f7f;stroke-width:0.99278"
       d="m 252.95854,85.00987 c 2.70561,-4.08846 2.674,-5.50237 -0.28244,-12.63172 -0.28304,-0.68253 -0.0653,-1.24097 0.4839,-1.24097 0.54919,0 1.51457,1.56363 2.14529,3.47473 0.63072,1.9111 1.44719,3.4692 1.81435,3.46244 0.36718,-0.007 1.70476,-1.61288 2.97239,-3.56916 1.26763,-1.95628 2.52769,-3.33396 2.80014,-3.06151 0.65962,0.65961 -10.6213,17.56354 -11.72111,17.56354 -0.47181,0 0.33255,-1.79881 1.78748,-3.99735 z m 161.06625,-0.28809 2.94844,-4.28543 -1.90797,-4.26161 c -2.19716,-4.90751 -2.22245,-5.03756 -0.97947,-5.03756 0.51069,0 1.49394,1.56363 2.185,3.47473 0.69107,1.9111 1.5018,3.4692 1.80163,3.46244 0.29983,-0.007 1.55444,-1.57039 2.78802,-3.47473 1.23359,-1.90434 2.70184,-3.46244 3.26278,-3.46244 0.56094,0 -1.76642,4.02076 -5.17192,8.93502 -3.4055,4.91426 -6.57053,8.93502 -7.03339,8.93502 -0.46287,0 0.48522,-1.92845 2.10688,-4.28544 z M 151.61773,80.79633 c -1.17076,-1.78681 -1.35425,-3.08767 -0.68411,-4.85024 1.38552,-3.64422 3.28113,-4.7364 7.90083,-4.55218 l 4.20037,0.1675 -0.65191,4.50359 c -0.79778,5.5113 -0.99219,5.87214 -3.14861,5.84398 -0.9448,-0.0123 -2.68507,0.28165 -3.86727,0.65331 -1.62629,0.51126 -2.53883,0.0815 -3.7493,-1.76596 z m 7.18937,-0.92269 c 1.72064,-1.72065 1.47674,-6.42895 -0.36976,-7.13751 -3.38167,-1.29767 -7.02596,2.74769 -5.84037,6.48315 0.66479,2.09453 4.37863,2.48586 6.21013,0.65436 z m 35.69043,2.1046 c -2.3418,-1.36397 -2.29346,-7.05173 0.0781,-9.19802 2.48956,-2.25302 6.8024,-2.10498 8.07734,0.27725 1.81931,3.39937 1.18505,4.03639 -4.01889,4.03639 -5.17276,0 -6.08374,1.19387 -2.59176,3.39656 1.21157,0.76423 2.2213,0.7152 3.65038,-0.17727 3.04022,-1.89866 3.77007,-1.39964 1.14789,0.78486 -2.62441,2.18634 -3.81659,2.35178 -6.34309,0.88023 z m 7.19765,-6.74838 c 0,-2.01909 -2.82339,-3.25268 -4.90044,-2.14108 -3.10084,1.65951 -2.46056,3.0123 1.42571,3.0123 1.9111,0 3.47473,-0.39205 3.47473,-0.87122 z m 11.91336,6.8279 c -1.52273,-0.98407 -0.78705,-1.34735 2.1458,-1.0596 2.9641,0.29081 3.2528,-2.12287 0.49427,-4.13231 -2.14747,-1.56433 -2.44034,-2.26129 -1.6056,-3.821 0.59304,-1.10812 2.07111,-1.90767 3.52656,-1.90767 1.37809,0 2.24157,0.42724 1.91883,0.94942 -0.32272,0.52218 -1.1974,0.7151 -1.94372,0.42871 -2.68191,-1.02914 -2.79975,1.82336 -0.16294,3.94395 2.49677,2.00795 2.55474,2.24559 1.06305,4.35752 -1.70956,2.42043 -3.1148,2.74121 -5.43625,1.24098 z m 60.2059,-0.4955 c -3.56005,-3.56004 -0.43194,-10.42508 4.75026,-10.42508 2.84967,0 5.5312,2.38757 5.5312,4.92483 0,4.67978 -7.23268,8.54903 -10.28146,5.50025 z m 7.10457,-1.68862 c 3.36978,-3.36978 -0.59307,-8.98383 -4.76534,-6.7509 -1.93621,1.03622 -2.80262,5.80148 -1.32371,7.28038 1.0787,1.07871 4.80488,0.75469 6.08905,-0.52948 z m 14.69345,1.88331 c -1.46002,-1.06759 -1.64692,-2.10821 -1.0698,-5.95667 0.90772,-6.05315 2.51536,-6.04188 2.20371,0.0155 -0.20023,3.89161 0.0733,4.74297 1.62588,5.06158 2.20659,0.45279 3.55153,-1.33471 3.59369,-4.77624 0.0322,-2.62582 1.53827,-5.74211 2.37216,-4.90823 0.97059,0.9706 -1.48863,9.39847 -3.0979,10.61672 -2.08478,1.57819 -3.41449,1.56576 -5.62774,-0.0526 z m 41.66808,-0.2665 c -2.14929,-2.14928 -1.95409,-5.98814 0.42547,-8.36771 3.42645,-3.42645 8.93502,-2.07991 8.93502,2.18411 0,1.45608 -0.82731,1.78701 -4.46751,1.78701 -3.34996,0 -4.46751,0.38031 -4.46751,1.52033 0,2.17326 2.66569,2.89949 5.7718,1.57243 l 2.66683,-1.13938 -2.34373,2.00165 c -2.8197,2.40813 -4.44383,2.51812 -6.52037,0.44156 z m 7.37493,-6.81995 c 0,-3.05159 -5.16067,-3.06854 -6.33019,-0.0208 -0.42266,1.10141 0.2734,1.45138 2.88661,1.45138 2.33642,0 3.44358,-0.45995 3.44358,-1.43058 z m 32.51354,7.30774 c -2.36504,-1.37751 -2.22476,-6.38255 0.24819,-8.8555 3.42645,-3.42645 8.93502,-2.07991 8.93502,2.18411 0,1.45608 -0.82731,1.78701 -4.46751,1.78701 -3.34995,0 -4.46751,0.38031 -4.46751,1.52033 0,2.09624 2.85719,3.00406 5.08194,1.61469 2.92834,-1.82878 3.58013,-1.26954 1.01296,0.86913 -2.62441,2.18634 -3.81659,2.35178 -6.34309,0.88023 z m 7.19765,-7.26011 c 0,-1.93058 -2.74935,-2.78058 -5.03581,-1.5569 -2.97649,1.59296 -2.26128,2.93985 1.56108,2.93985 2.30819,0 3.47473,-0.46429 3.47473,-1.38295 z m 96.9499,6.51687 c -2.17799,-2.40665 -2.07192,-4.32092 0.41458,-7.48199 3.17995,-4.04265 8.86296,-3.04631 8.86296,1.55384 0,1.46033 -0.83002,1.78701 -4.5403,1.78701 -3.7884,0 -4.48547,0.28772 -4.20918,1.73736 0.4005,2.10132 4.33445,2.84529 6.32217,1.19563 1.04905,-0.87064 1.43453,-0.88451 1.43453,-0.0516 0,1.02397 -3.91379,3.07532 -5.86744,3.07532 -0.42585,0 -1.51365,-0.81699 -2.41732,-1.81553 z m 7.29198,-6.65425 c 0,-2.07866 -2.67736,-2.9437 -4.48015,-1.44752 -2.29393,1.90379 -1.75548,2.96785 1.50181,2.96785 2.01269,0 2.97834,-0.49293 2.97834,-1.52033 z m 30.3507,6.9097 c -1.86277,-1.86276 -1.95404,-3.43852 -0.39711,-6.85563 2.12291,-4.65928 8.87091,-4.42914 9.57845,0.32667 0.28575,1.92067 -0.14036,2.13237 -4.2921,2.13237 -3.85416,0 -4.5551,0.28465 -4.27823,1.73736 0.4005,2.10132 4.33445,2.84529 6.32217,1.19563 0.78899,-0.65481 1.43453,-0.76081 1.43453,-0.23557 0,0.9397 -4.22204,3.25926 -5.93247,3.25926 -0.48134,0 -1.5772,-0.70204 -2.43524,-1.56009 z m 7.37493,-6.81995 c 0,-1.96297 -1.6158,-2.7917 -3.98,-2.04133 -3.14348,0.9977 -2.42966,3.47191 1.00166,3.47191 1.93134,0 2.97834,-0.5029 2.97834,-1.43058 z m 12.90614,7.44585 c 0,-0.51381 0.44675,-1.2103 0.99278,-1.54776 0.54603,-0.33747 0.99278,0.0829 0.99278,0.93419 0,0.85126 -0.44675,1.54776 -0.99278,1.54776 -0.54603,0 -0.99278,-0.42039 -0.99278,-0.93419 z M 137.55679,76.84566 c 0.50354,-6.29605 1.4851,-9.6796 2.80805,-9.6796 0.54077,0 0.6969,0.7461 0.34698,1.65799 -0.35014,0.91243 -0.063,2.02851 0.63836,2.48195 1.03189,0.66706 1.02396,0.98577 -0.0417,1.67366 -0.72394,0.46733 -1.56457,2.70109 -1.86809,4.9639 -0.801,5.97194 -2.37567,5.05414 -1.88365,-1.0979 z m 35.72529,3.47473 c 0.28123,-0.95555 1.05875,-5.42306 1.72784,-9.9278 0.66909,-4.50473 1.6367,-8.19043 2.15026,-8.19043 0.87129,0 0.30178,7.03361 -0.90433,11.16877 -0.67845,2.32605 0.88538,2.20092 3.10179,-0.24819 0.9883,-1.09206 2.2861,-1.97144 2.88401,-1.95419 0.5979,0.0172 -0.2025,1.16521 -1.77868,2.55101 l -2.86579,2.51963 2.15093,2.90928 c 2.49994,3.38136 1.71088,3.83052 -1.47362,0.83883 l -2.20389,-2.07045 -0.65714,2.07045 c -0.79101,2.49226 -2.86208,2.81592 -2.13138,0.33309 z M 358.64072,77.9833 c -0.67141,-2.24095 -1.46004,-4.69808 -1.75253,-5.46029 -0.29249,-0.7622 -0.0727,-1.38583 0.48832,-1.38583 0.56106,0 1.31336,1.33513 1.67177,2.96695 0.94718,4.31247 2.0408,4.43832 4.46618,0.51396 1.18323,-1.9145 2.5662,-3.48091 3.07327,-3.48091 0.50708,0 -0.70949,2.45713 -2.70348,5.46029 -1.99397,3.00316 -3.71483,5.46029 -3.8241,5.46029 -0.10929,0 -0.74802,-1.83351 -1.41943,-4.07446 z m 37.99486,0.35153 c 0.33845,-2.04761 0.62028,-4.41619 0.62629,-5.26353 0.008,-1.0778 1.05475,-1.57019 3.48566,-1.6391 1.9111,-0.0542 3.47473,0.3304 3.47473,0.85461 0,0.52421 -0.46632,0.66491 -1.03627,0.31266 -1.75264,-1.08319 -3.91427,1.5792 -4.55979,5.6161 -0.33792,2.1132 -1.0625,3.84219 -1.61018,3.84219 -0.59824,0 -0.75012,-1.48632 -0.38044,-3.72293 z m 64.05819,-6.20487 c 0.80059,-5.46029 1.88211,-9.9278 2.40336,-9.9278 0.55871,0 0.6867,1.96758 0.31182,4.79366 l -0.63591,4.79366 2.87238,-0.42157 c 3.66973,-0.5386 4.46405,0.83263 3.64523,6.29282 -0.87453,5.83179 -2.39086,5.63504 -2.18761,-0.28386 0.12803,-3.72855 -0.19051,-4.75285 -1.56571,-5.03459 -1.77937,-0.36455 -3.06927,1.79082 -4.18044,6.98533 -0.32121,1.50158 -0.92933,2.73015 -1.35139,2.73015 -0.42205,0 -0.11233,-4.46751 0.68827,-9.9278 z m 40.17092,8.19043 c 0.26214,-0.95555 0.74571,-3.34054 1.0746,-5.29999 0.54845,-3.26745 0.88804,-3.57353 4.09867,-3.69423 2.19265,-0.0824 3.26278,0.25331 2.86401,0.89854 -0.35016,0.56657 -0.87404,0.79275 -1.16417,0.50262 -1.37382,-1.37382 -4.03277,1.69449 -4.61303,5.32324 -0.35243,2.20395 -1.11235,4.00719 -1.68873,4.00719 -0.57637,0 -0.83347,-0.78182 -0.57135,-1.73737 z m -66.10061,-4.27786 c -1.05878,-3.3109 -1.22348,-4.8949 -0.48329,-4.64818 0.61755,0.20585 1.50058,1.83212 1.96229,3.61394 0.68446,2.64143 1.09827,3.02489 2.24092,2.07657 0.77078,-0.6397 1.67222,-2.01625 2.00317,-3.05899 0.75395,-2.37546 2.44835,-2.48428 2.4687,-0.15855 0.008,0.95555 0.4092,2.35958 0.89076,3.12006 0.67436,1.06495 1.4123,0.55448 3.21133,-2.22147 3.57401,-5.51477 4.16676,-4.31053 0.6572,1.33517 -1.69714,2.73014 -3.40107,4.9639 -3.7865,4.9639 -0.38541,0 -1.12903,-1.45194 -1.65246,-3.22654 l -0.95171,-3.22653 -1.69935,3.22653 c -0.93465,1.7746 -2.04936,3.22654 -2.47715,3.22654 -0.42778,0 -1.50054,-2.2601 -2.38391,-5.02245 z m 105.46901,1.38084 c 0,-3.24459 2.4064,-13.23565 3.18787,-13.23565 0.54918,0 0.75875,1.00519 0.46573,2.23376 -0.29302,1.22856 -0.83893,4.35582 -1.21313,6.94945 -0.3742,2.59364 -1.07638,4.71571 -1.56041,4.71571 -0.48403,0 -0.88006,-0.29847 -0.88006,-0.66327 z M 22.438469,59.94986 c -3.873372,-2.1176 -4.61275,-6.2836 -1.599229,-9.0108 3.817105,-3.45443 9.10504,-0.97861 9.10504,4.263 0,4.12575 -4.007212,6.66052 -7.505811,4.7478 z m 33.318085,0.50269 c -3.976071,-1.23981 -5.221962,-6.73845 -2.155582,-9.51349 3.817106,-3.45443 9.105041,-0.97861 9.105041,4.263 0,3.70152 -3.481479,6.33186 -6.949459,5.25049 z M 36.279408,57.69398 c -2.132336,-3.25435 -0.605825,-7.06111 3.216176,-8.02037 3.275606,-0.82212 5.541844,0.48971 6.762443,3.9145 2.041535,5.7282 -6.588847,9.27932 -9.978619,4.10587 z M 3.632126,41.98418 c -3.7138752,-5.66809 4.236104,-11.78317 8.784639,-6.7571 2.155517,2.38182 2.085314,5.41872 -0.172499,7.46201 -2.672698,2.41876 -6.786036,2.08208 -8.61214,-0.70491 z m 32.598973,-0.2484 c -1.523556,-2.32524 -1.548629,-2.86949 -0.240111,-5.2121 2.009735,-3.59798 7.033416,-4.12038 9.246008,-0.96146 2.07257,2.95901 2.00301,5.10512 -0.230997,7.12687 -2.779461,2.51538 -6.787433,2.07995 -8.7749,-0.95331 z M 3.4693655,25.8513 C 1.9456827,23.52587 1.9206644,22.98201 3.2295991,20.63921 5.987844,15.70234 14.059804,17.45247 14.059804,22.98736 c 0,5.34083 -7.617729,7.40087 -10.5904385,2.86394 z m 17.1973755,0.78081 c -4.486541,-4.95757 1.30527,-11.31625 7.357246,-8.07733 2.201209,1.17805 2.668957,6.76153 0.728957,8.70153 -1.780292,1.7803 -6.220344,1.43755 -8.086203,-0.6242 z M 3.4693655,9.96682 C 1.9456827,7.64139 1.9206644,7.09754 3.2295991,4.75473 5.987844,-0.18212999 14.059804,1.56799 14.059804,7.10288 c 0,5.34083 -7.617729,7.40087 -10.5904385,2.86394 z"
       id="path5267" />
    <path
       style="fill:#e2401f;stroke-width:0.99278"
       d="M 5.93066,60.15529 C 2.8795275,59.00247 1.4386194,55.92859 2.5630333,52.97116 3.545176,50.38792 5.449315,49.29602 8.972009,49.29602 c 3.047559,0 9.551693,-6.85297 9.551693,-10.06398 0,-3.09605 2.807191,-5.82049 5.997273,-5.82049 2.884732,0 10.957987,-7.57657 10.194182,-9.56702 -1.011052,-2.63476 2.46764,-6.31746 5.967494,-6.31746 2.454261,0 4.150762,-0.92209 6.926572,-3.76478 2.021917,-2.07063 3.676212,-4.08101 3.676212,-4.46751 0,-1.53165 -4.762868,-0.58482 -6.453068,1.28283 -2.349377,2.59603 -7.047777,2.59603 -8.669026,0 -1.588245,-2.54318 -5.168656,-2.54318 -7.711841,0 -3.722814,3.72282 -9.927798,1.39141 -9.927798,-3.73018 0,-4.84616 7.631746,-7.26475999 10.158196,-3.21928 1.612259,2.58164 5.869184,2.58164 7.481443,0 0.766562,-1.22746 2.31519,-1.98555 4.05606,-1.98555 1.555237,0 3.620581,0.88898 4.612966,1.98555 2.295829,2.53687 5.539755,2.53687 7.711885,0 1.888776,-2.20592 6.615519,-2.64911999 8.470425,-0.79422 1.854906,1.85491 1.411706,6.58165 -0.794224,8.47043 -2.536673,2.17196 -2.536673,5.30956 0,7.48153 2.643226,2.2632 2.643226,7.25437 0,8.66898 -1.092058,0.58445 -1.985559,2.06451 -1.985559,3.28902 0,1.22451 0.893501,2.99143 1.985559,3.92647 2.20593,1.88878 2.64913,6.61552 0.794224,8.47043 -1.686757,1.68676 -6.322928,1.47748 -8.169159,-0.36875 -2.147492,-2.14749 -1.95452,-5.71745 0.425477,-7.87132 2.536862,-2.29583 2.536862,-5.53976 0,-7.71189 -2.541494,-2.17609 -2.541494,-5.87257 0,-8.17259 2.003053,-1.81274 2.691631,-5.89951 1.154111,-6.84975 -0.457296,-0.28262 -2.579256,1.27606 -4.715466,3.46373 -2.847022,2.91562 -3.796051,4.6489 -3.554537,6.49189 0.449695,3.43165 -2.404615,6.32554 -6.239022,6.32554 -4.24782,0 -10.471801,6.25006 -10.471801,10.51568 0,3.9277 -1.599917,5.3688 -5.960484,5.3688 -4.608429,0 -10.600974,5.66292 -10.093171,9.53799 0.54845,4.18525 -3.651789,7.72403 -7.459965,6.28517 z"
       id="path5261" />
  </g>
</svg>
